<svg id="Layer_1" data-name="Layer 1" xmlns="http://www.w3.org/2000/svg" xmlns:xlink="http://www.w3.org/1999/xlink" viewBox="0 0 138.51 111.37"><defs><style>.cls-1{fill:#fff;}.cls-2{mask:url(#mask);}.cls-3{fill:#e1f4ff;}.cls-4{mask:url(#mask-2-2);}.cls-5{fill:#d4effe;}.cls-6{fill:#eaf8ff;}.cls-7{fill:#d3effe;}.cls-8{fill:#eff9ff;}.cls-9{mask:url(#mask-3);}.cls-10{fill:#c7ebfe;}.cls-11{fill:#c6ebfe;}.cls-12{fill:#febf2d;}.cls-13{fill:#90dffe;}.cls-14{mask:url(#mask-4-2);}.cls-15{fill:#9c85ba;}.cls-16{fill:#fd7661;}.cls-17{fill:#bdaed2;}.cls-18{fill:#4dccfd;}.cls-19{fill:#7ed536;}.cls-20{fill:#d0eefe;}</style><mask id="mask" x="64.62" y="55.24" width="41.38" height="23.49" maskUnits="userSpaceOnUse"><g transform="translate(-0.02 0)"><g id="mask-2"><polygon id="path-1" class="cls-1" points="106.02 55.24 64.64 55.24 64.64 78.73 106.02 78.73 106.02 55.24"/></g></g></mask><mask id="mask-2-2" x="90.93" y="64.29" width="23.21" height="5.05" maskUnits="userSpaceOnUse"><g transform="translate(-0.02 0)"><g id="mask-4"><polygon id="path-3" class="cls-1" points="114.16 69.34 114.16 64.29 90.95 64.29 90.95 69.34 114.16 69.34"/></g></g></mask><mask id="mask-3" x="33.23" y="24.2" width="15" height="3.9" maskUnits="userSpaceOnUse"><g transform="translate(-0.02 0)"><g id="mask-6"><polygon id="path-5" class="cls-1" points="48.26 28.1 48.26 24.2 33.25 24.2 33.25 28.1 48.26 28.1"/></g></g></mask><mask id="mask-4-2" x="87.98" y="50.67" width="50.53" height="60.7" maskUnits="userSpaceOnUse"><g transform="translate(-0.02 0)"><g id="mask-8"><polygon id="path-7" class="cls-1" points="138.53 101.35 138.53 50.67 88 50.67 88 111.37 138.53 111.37 138.53 101.35 128.6 101.35 128.6 111.37 138.53 111.37 138.53 101.35 138.53 101.35"/></g></g></mask></defs><title>features-bg</title><g id="Page-1"><g id="Blue"><g id="Group-10"><g id="Group-8"><g id="Page-1-2" data-name="Page-1"><g id="Group-3"><g class="cls-2"><path id="Fill-1" class="cls-3" d="M68.84,56.3a2.49,2.49,0,0,1,2.24-1c10.85,0,21.71-.1,32.56-.08A2.35,2.35,0,0,1,105.5,59c-.74,1.08-2.15,1-3.31,1-1.35,0-2.7,0-4,0A2.26,2.26,0,0,0,96,62.35c0,.77.56,1.32.91,1.94-2,1.67-4,3.29-6,5-1.4.2-2.85-.12-4.25.15a2.36,2.36,0,0,0-1.46,3.19A2.31,2.31,0,0,0,87.48,74H97.92a9.26,9.26,0,0,1,2.68.16c-4.38.09-8.76.07-13.14.12a2,2,0,0,0-1.29.55c-1.57,1.3-3.09,2.64-4.69,3.9-.94.09-1.89,0-2.84,0H67A2.47,2.47,0,0,1,65,77.55c-.08-.2-.16-.39-.25-.57a3.34,3.34,0,0,1,0-1.18A2.46,2.46,0,0,1,67,74a2.35,2.35,0,0,0,.62-4.64,15.89,15.89,0,0,0-2.29-.07c1.68-1.64,3.55-3.07,5.34-4.59,1.89-.19,3.81.06,5.71-.12a2.35,2.35,0,0,0,2-2.69,2.41,2.41,0,0,0-2.32-2c-1.83-.06-3.66,0-5.49,0a2.1,2.1,0,0,1-2-1.79,2.89,2.89,0,0,1,.29-1.79" transform="translate(-0.02 0)"/></g></g><g id="Group-6"><g class="cls-4"><path id="Fill-4" class="cls-5" d="M91,69.28c2-1.7,4-3.32,6-5a4.9,4.9,0,0,0,1.73.35l13.06,0A2.36,2.36,0,0,1,113,69.05a5.43,5.43,0,0,1-2.44.29c-6.52,0-13,0-19.56-.06" transform="translate(-0.02 0)"/></g></g><g id="Group-9"><path id="Fill-7" class="cls-6" d="M59.25,68a2.39,2.39,0,0,1,2.45-3.39c2.9,0,5.79,0,8.69,0l.31.06c-1.79,1.52-3.66,3-5.34,4.59H63.52c-1.49,0-3.48.36-4.27-1.29" transform="translate(-0.02 0)"/></g><path id="Fill-10" class="cls-7" d="M86.17,74.79a2,2,0,0,1,1.29-.55c4.38,0,8.76,0,13.14-.12a2.35,2.35,0,0,1-.77,4.59l-18.35,0c1.6-1.26,3.12-2.6,4.69-3.9" transform="translate(-0.02 0)"/></g><g id="Page-1-3" data-name="Page-1"><path id="Fill-1-2" data-name="Fill-1" class="cls-8" d="M31.47,59c.56,1.58.8,3.28,1.33,4.88-2.15.17-4.31,0-6.46.08a2.45,2.45,0,0,1-2.53-2.8,2.4,2.4,0,0,1,2.27-2c1.79-.07,3.6.1,5.39-.13" transform="translate(-0.02 0)"/><path id="Fill-3" class="cls-8" d="M16.43,59.29a5.22,5.22,0,0,1,2.39-.13,2.42,2.42,0,0,1,1.52,3.76c-.7,1.24-2.31,1.13-3.53,1a2.49,2.49,0,0,1-1.53-3.53,3.49,3.49,0,0,1,1.15-1.08" transform="translate(-0.02 0)"/></g><g id="Page-1-4" data-name="Page-1"><g id="Group-3-2" data-name="Group-3"><g class="cls-9"><path id="Fill-1-3" data-name="Fill-1" class="cls-10" d="M34.48,24.36a3.18,3.18,0,0,1,1.1-.15c3.58,0,7.17,0,10.75,0a1.95,1.95,0,0,1,0,3.89q-5.56,0-11.13,0A1.93,1.93,0,0,1,33.42,27a2,2,0,0,1,1.06-2.68" transform="translate(-0.02 0)"/></g></g><path id="Fill-4-2" data-name="Fill-4" class="cls-11" d="M30.57,32c1-.07,2-.05,3.08,0a1.93,1.93,0,0,1,0,3.86c-.92,0-1.84,0-2.76,0A1.94,1.94,0,0,1,30.57,32" transform="translate(-0.02 0)"/></g><g id="Page-1-5" data-name="Page-1"><path id="Fill-1-4" data-name="Fill-1" class="cls-12" d="M129.4,50.93a2.68,2.68,0,1,1-.39,4.64,2.73,2.73,0,0,1,.39-4.64" transform="translate(-0.02 0)"/><path id="Fill-3-2" data-name="Fill-3" class="cls-13" d="M93.25,85.88c.61-1.18.59-3.11,2.24-3.3.84,1.94,1.26,4.44,3.41,5.4,1.06.78,3.06.46,3.28,2.07-1.23,1-2.82,1.17-4.13,2-1.57,1.13-1.8,3.2-2.56,4.86-2.13-.49-1.5-3.34-2.88-4.63-1.25-1.47-4.13-.75-4.61-2.91,1.84-.92,4.5-1.18,5.25-3.44" transform="translate(-0.02 0)"/><g id="Group-7"><g class="cls-14"><path id="Fill-5" class="cls-15" d="M132.69,104.21a2.34,2.34,0,0,0-.8,3.8,2.3,2.3,0,0,0,3.77-.71,2.33,2.33,0,0,0-3-3.09m-1.18-2.38c3.46-1.81,7.85,1.78,6.89,5.56-.57,3.57-5.37,5.27-8,2.83a5,5,0,0,1,1.13-8.39" transform="translate(-0.02 0)"/></g></g></g><g id="Group-3-3" data-name="Group-3"><path id="Fill-1-5" data-name="Fill-1" class="cls-16" d="M3.23,32c0-.67-.25-2,.77-2,1.21,0,.77,1.58.77,2.36-.4.68-1.59.46-1.54-.38" transform="translate(-0.02 0)"/><path id="Fill-3-3" data-name="Fill-3" class="cls-16" d="M.48,33.21c.76,0,2.28-.41,2.31.75s-1.29.81-2,.8c-.86.08-1.1-1.23-.34-1.55" transform="translate(-0.02 0)"/><path id="Fill-5-2" data-name="Fill-5" class="cls-16" d="M5.66,33.22C6.43,33.21,8,32.8,8,34c0,1-1.31.76-2,.76-.83.06-1.07-1.19-.34-1.54" transform="translate(-0.02 0)"/><path id="Fill-7-2" data-name="Fill-7" class="cls-16" d="M3.7,35.22c1.46-.35,1.48,2.11.64,2.7-1.46.35-1.49-2.1-.64-2.7" transform="translate(-0.02 0)"/></g><path id="Fill-9" class="cls-17" d="M52.74.21c1.68-1,3.22,1.67,1.52,2.58S51,1.11,52.74.21" transform="translate(-0.02 0)"/><path id="Fill-1-6" data-name="Fill-1" class="cls-18" d="M108.7,13.15c-1.83.87-.17,3.82,1.54,2.73,1.9-.88.18-3.88-1.54-2.73m-.61-1.84a3.49,3.49,0,1,1-.71,6,3.52,3.52,0,0,1,.71-6" transform="translate(-0.02 0)"/><path id="Fill-1-7" data-name="Fill-1" class="cls-19" d="M3.15,57.06A2.43,2.43,0,0,1,6,59.49,2.52,2.52,0,0,1,3.5,62a2.45,2.45,0,0,1-2.44-2.86c1.24-.8.8,1.17,1.63,1.52a1.43,1.43,0,0,0,2.09-1.78c-.2-1.05-2.46-.51-1.63-1.82" transform="translate(-0.02 0)"/><g id="Group-13"><path id="Fill-11" class="cls-12" d="M32.08,83.45c.38-.62.33-2,1.39-1.85a5,5,0,0,0,3.89,3.9c.35,1.09-1.2,1-1.8,1.42-1.39.36-1.53,2-2.09,3.08-1.22.09-1-1.61-1.55-2.35-.54-1.28-2.93-.6-2.92-2.14,1.08-.55,2.68-.69,3.08-2.06" transform="translate(-0.02 0)"/></g><path id="Fill-3-4" data-name="Fill-3" class="cls-20" d="M101.51,36.11a50.66,50.66,0,0,1,5.23-.09,3.3,3.3,0,0,1,3.08,2,3,3,0,0,1-2,3.77,17.41,17.41,0,0,1-3.75.17c-1.52,0-3.35.14-4.36-1.13a2.9,2.9,0,0,1,1.8-4.74" transform="translate(-0.02 0)"/></g></g></g></g></svg>